<svg width="676" height="793" viewBox="0 0 676 793" fill="none" xmlns="http://www.w3.org/2000/svg">
<path fill-rule="evenodd" clip-rule="evenodd" d="M433.373 227.76C438.07 232.448 438.07 240.059 433.373 244.747L289.276 388.564C284.579 393.252 284.579 400.863 289.276 405.551L433.477 549.471C438.175 554.159 438.175 561.77 433.477 566.458L307.536 692.154C302.851 696.83 295.266 696.83 290.582 692.154L3.52301 405.655C-1.17432 400.967 -1.17434 393.356 3.52298 388.668L290.582 102.168C295.266 97.4928 302.851 97.4928 307.536 102.168L433.373 227.76Z" fill="url(#paint0_linear_2345_2293)"/>
<g filter="url(#filter0_d_2345_2293)">
<path fill-rule="evenodd" clip-rule="evenodd" d="M617.712 227.107C622.405 231.794 622.405 239.399 617.712 244.087L474.076 387.564C469.384 392.251 469.384 399.856 474.076 404.544L617.821 548.127C622.513 552.815 622.513 560.42 617.821 565.107L492.295 690.498C487.61 695.178 480.019 695.178 475.333 690.498L189.178 404.652C184.485 399.965 184.485 392.36 189.178 387.672L475.334 101.825C480.019 97.1449 487.61 97.1449 492.295 101.825L617.712 227.107Z" fill="url(#paint1_linear_2345_2293)"/>
</g>
<defs>
<filter id="filter0_d_2345_2293" x="43.1012" y="-0.000221252" width="632.312" height="792.324" filterUnits="userSpaceOnUse" color-interpolation-filters="sRGB">
<feFlood flood-opacity="0" result="BackgroundImageFix"/>
<feColorMatrix in="SourceAlpha" type="matrix" values="0 0 0 0 0 0 0 0 0 0 0 0 0 0 0 0 0 0 127 0" result="hardAlpha"/>
<feOffset dx="-44.2418"/>
<feGaussianBlur stdDeviation="49.1576"/>
<feComposite in2="hardAlpha" operator="out"/>
<feColorMatrix type="matrix" values="0 0 0 0 0 0 0 0 0 0 0 0 0 0 0 0 0 0 0.05 0"/>
<feBlend mode="normal" in2="BackgroundImageFix" result="effect1_dropShadow_2345_2293"/>
<feBlend mode="normal" in="SourceGraphic" in2="effect1_dropShadow_2345_2293" result="shape"/>
</filter>
<linearGradient id="paint0_linear_2345_2293" x1="437.14" y1="397.097" x2="8.08082" y2="389.901" gradientUnits="userSpaceOnUse">
<stop offset="0.176612" stop-color="#FF5C00"/>
<stop offset="0.91481" stop-color="#FFA13D"/>
</linearGradient>
<linearGradient id="paint1_linear_2345_2293" x1="791.581" y1="396.098" x2="243.793" y2="588.403" gradientUnits="userSpaceOnUse">
<stop stop-color="#FEB14B"/>
<stop offset="1" stop-color="#FF5C00"/>
</linearGradient>
</defs>
</svg>
