<?xml version="1.0" encoding="UTF-8" standalone="no"?>
<svg
   width="621.33997"
   height="597.34607"
   viewBox="0 0 621.33997 597.34607"
   fill="none"
   version="1.1"
   id="svg7"
   xmlns="http://www.w3.org/2000/svg"
   xmlns:svg="http://www.w3.org/2000/svg">
  <g
     filter="url(#filter0_d_2345_2293)"
     id="g2"
     transform="translate(-50.553753,-106.24493)">
    <g
       id="g7"
       transform="translate(50.55375,7.93)">
      <path
         fill-rule="evenodd"
         clip-rule="evenodd"
         d="m 433.373,227.76 c 4.697,4.688 4.697,12.299 0,16.987 L 289.276,388.564 c -4.697,4.688 -4.697,12.299 0,16.987 l 144.201,143.92 c 4.698,4.688 4.698,12.299 0,16.987 L 307.536,692.154 c -4.685,4.676 -12.27,4.676 -16.954,0 L 3.52301,405.655 c -4.69733,-4.688 -4.69735,-12.299 -3e-5,-16.987 L 290.582,102.168 c 4.684,-4.6752 12.269,-4.6752 16.954,0 z"
         fill="url(#paint0_linear_2345_2293)"
         id="path1"
         style="fill:url(#paint0_linear_2345_2293)" />
      <path
         fill-rule="evenodd"
         clip-rule="evenodd"
         d="m 617.712,227.107 c 4.693,4.687 4.693,12.292 0,16.98 L 474.076,387.564 c -4.692,4.687 -4.692,12.292 0,16.98 l 143.745,143.583 c 4.692,4.688 4.692,12.293 0,16.98 L 492.295,690.498 c -4.685,4.68 -12.276,4.68 -16.962,0 L 189.178,404.652 c -4.693,-4.687 -4.693,-12.292 0,-16.98 L 475.334,101.825 c 4.685,-4.6801 12.276,-4.6801 16.961,0 z"
         fill="url(#paint1_linear_2345_2293)"
         id="path2"
         style="fill:url(#paint1_linear_2345_2293)" />
    </g>
  </g>
  <defs
     id="defs7">
    <filter
       id="filter0_d_2345_2293"
       x="43.1012"
       y="-0.000221252"
       width="632.31201"
       height="792.32397"
       filterUnits="userSpaceOnUse"
       color-interpolation-filters="sRGB">
      <feFlood
         flood-opacity="0"
         result="BackgroundImageFix"
         id="feFlood2" />
      <feColorMatrix
         in="SourceAlpha"
         type="matrix"
         values="0 0 0 0 0 0 0 0 0 0 0 0 0 0 0 0 0 0 127 0"
         result="hardAlpha"
         id="feColorMatrix2" />
      <feOffset
         dx="-44.2418"
         id="feOffset2" />
      <feGaussianBlur
         stdDeviation="49.1576"
         id="feGaussianBlur2" />
      <feComposite
         in2="hardAlpha"
         operator="out"
         id="feComposite2" />
      <feColorMatrix
         type="matrix"
         values="0 0 0 0 0 0 0 0 0 0 0 0 0 0 0 0 0 0 0.05 0"
         id="feColorMatrix3" />
      <feBlend
         mode="normal"
         in2="BackgroundImageFix"
         result="effect1_dropShadow_2345_2293"
         id="feBlend3" />
      <feBlend
         mode="normal"
         in="SourceGraphic"
         in2="effect1_dropShadow_2345_2293"
         result="shape"
         id="feBlend4" />
    </filter>
    <linearGradient
       id="paint0_linear_2345_2293"
       x1="437.14001"
       y1="397.09698"
       x2="8.0808201"
       y2="389.901"
       gradientUnits="userSpaceOnUse">
      <stop
         offset="0.176612"
         stop-color="#FF5C00"
         id="stop4" />
      <stop
         offset="0.91481"
         stop-color="#FFA13D"
         id="stop5" />
    </linearGradient>
    <linearGradient
       id="paint1_linear_2345_2293"
       x1="791.58099"
       y1="396.09799"
       x2="243.793"
       y2="588.40302"
       gradientUnits="userSpaceOnUse">
      <stop
         stop-color="#FEB14B"
         id="stop6" />
      <stop
         offset="1"
         stop-color="#FF5C00"
         id="stop7" />
    </linearGradient>
  </defs>
</svg>
