<svg width="824" height="85" viewBox="0 0 824 85" fill="none" xmlns="http://www.w3.org/2000/svg">
<path d="M5.1 69V19.02H20.536C22.6667 19.02 24.752 19.3373 26.792 19.972C28.8773 20.6067 30.6907 21.6493 32.232 23.1C33.7733 24.5507 34.8613 26.228 35.496 28.132C36.176 29.9907 36.516 31.8947 36.516 33.844C36.516 35.7933 36.176 37.72 35.496 39.624C34.8613 41.4827 33.7733 43.1373 32.232 44.588C30.6907 45.9933 28.8773 47.0133 26.792 47.648C24.752 48.2827 22.6667 48.6 20.536 48.6H12.104V69H5.1ZM12.104 42.888H20.536C21.76 42.888 22.984 42.684 24.208 42.276C25.432 41.8227 26.4293 41.1427 27.2 40.236C28.016 39.3293 28.5827 38.332 28.9 37.244C29.2627 36.1107 29.444 34.9773 29.444 33.844C29.444 32.6653 29.2627 31.532 28.9 30.444C28.5827 29.3107 28.016 28.2907 27.2 27.384C26.4293 26.4773 25.432 25.82 24.208 25.412C22.984 24.9587 21.76 24.732 20.536 24.732H12.104V42.888ZM42.9197 69V32.96H49.9917V47.376C49.9917 51.0027 49.901 54.6067 49.7197 58.188C49.6744 59.4573 49.629 60.7493 49.5837 62.064L65.0877 32.96H71.6837H74.6077V69H67.5357V54.584C67.5357 50.9573 67.6264 47.3533 67.8077 43.772C67.853 42.5027 67.8984 41.2107 67.9437 39.896L52.4397 69H45.8437H42.9197ZM81.5554 69V32.96H84.7514H91.7554L102.839 53.836L113.923 32.96H120.927H124.123V69H117.119V61.792C117.119 56.9867 117.119 52.1813 117.119 47.376V46.696V45.336V44.724V44.044V43.024V42.344V41.324V40.984V40.168L106.307 60.364H99.3714L88.5594 40.168V40.984V41.324V42.344V43.024V44.044V44.724V45.336V46.016V47.376C88.5594 52.1813 88.5594 56.9867 88.5594 61.792V69H81.5554Z" fill="black"/>
<path d="M147.876 69L160.864 19.02H166.304L179.292 69H174.464L170.724 54.788H156.444L152.704 69H147.876ZM157.396 50.98H169.772L168.208 44.86C166.077 36.7 164.536 29.6053 163.584 23.576V23.372C162.632 29.4467 161.091 36.6093 158.96 44.86L157.396 50.98ZM202.764 29.288C201.222 29.288 199.681 29.0387 198.14 28.54C196.644 28.0413 195.352 27.2707 194.264 26.228C193.221 25.14 192.473 23.916 192.02 22.556C191.566 21.196 191.34 19.8133 191.34 18.408H196.032C196.032 19.5867 196.258 20.7427 196.712 21.876C197.165 22.964 197.958 23.848 199.092 24.528C200.225 25.1627 201.449 25.48 202.764 25.48C204.078 25.48 205.302 25.1627 206.436 24.528C207.569 23.848 208.362 22.964 208.816 21.876C209.269 20.7427 209.496 19.5867 209.496 18.408H214.188C214.188 19.8133 213.961 21.196 213.508 22.556C213.054 23.916 212.284 25.14 211.196 26.228C210.153 27.2707 208.861 28.0413 207.32 28.54C205.824 29.0387 204.305 29.288 202.764 29.288ZM187.668 69V32.96H192.36V64.648L211.06 32.96H217.86V69H213.168V37.312L194.468 69H189.776H187.668ZM241.943 69.544C239.813 69.544 237.75 69.2493 235.755 68.66C233.761 68.0707 231.993 67.096 230.451 65.736C228.955 64.376 227.867 62.7893 227.187 60.976C226.553 59.1627 226.235 57.304 226.235 55.4V45.336C226.235 44.9733 226.235 44.588 226.235 44.18C226.235 41.4147 226.394 38.6493 226.711 35.884C227.074 33.1187 228.094 30.5347 229.771 28.132C231.449 25.684 233.806 24.12 236.843 23.44C239.926 22.76 242.941 22.08 245.887 21.4C248.834 20.6747 251.781 19.8813 254.727 19.02L256.155 22.624C254.161 23.2587 252.143 23.848 250.103 24.392C248.063 24.936 246.001 25.412 243.915 25.82C241.875 26.1827 239.813 26.6587 237.727 27.248C235.687 27.8373 234.146 29.016 233.103 30.784C232.061 32.5067 231.426 34.32 231.199 36.224C231.109 36.9493 231.041 37.652 230.995 38.332C231.358 37.924 231.721 37.5387 232.083 37.176C233.307 35.8613 234.803 34.9093 236.571 34.32C238.385 33.7307 240.221 33.436 242.079 33.436C244.119 33.436 246.091 33.708 247.995 34.252C249.945 34.796 251.69 35.68 253.231 36.904C254.773 38.0827 255.883 39.5333 256.563 41.256C257.289 42.9787 257.651 44.7467 257.651 46.56V55.4C257.651 57.304 257.311 59.1627 256.631 60.976C255.997 62.7893 254.909 64.376 253.367 65.736C251.871 67.096 250.126 68.0707 248.131 68.66C246.137 69.2493 244.074 69.544 241.943 69.544ZM241.943 65.736C243.439 65.736 244.913 65.5093 246.363 65.056C247.814 64.6027 249.038 63.8773 250.035 62.88C251.078 61.8373 251.826 60.6813 252.279 59.412C252.733 58.0973 252.959 56.76 252.959 55.4V46.56C252.959 45.2907 252.71 44.044 252.211 42.82C251.713 41.596 250.919 40.5533 249.831 39.692C248.743 38.8307 247.519 38.2187 246.159 37.856C244.799 37.448 243.394 37.244 241.943 37.244C240.538 37.244 239.133 37.448 237.727 37.856C236.367 38.2187 235.143 38.8307 234.055 39.692C232.967 40.5533 232.174 41.596 231.675 42.82C231.177 44.044 230.927 45.2907 230.927 46.56V55.4C230.927 56.76 231.154 58.0973 231.607 59.412C232.061 60.6813 232.786 61.8373 233.783 62.88C234.826 63.8773 236.073 64.6027 237.523 65.056C238.974 65.5093 240.447 65.736 241.943 65.736ZM268.271 82.94V79.132H271.467C272.102 79.132 272.736 79.0413 273.371 78.86C274.006 78.6787 274.504 78.3387 274.867 77.84C275.275 77.3413 275.57 76.7973 275.751 76.208C275.842 75.936 275.932 75.664 276.023 75.392C276.159 75.12 276.272 74.848 276.363 74.576L278.539 68.796L264.259 32.96H269.903L281.123 62.812L292.343 32.96H297.987L281.735 73.556V73.624L280.851 75.868C280.398 76.9107 279.967 77.84 279.559 78.656C279.106 79.5627 278.471 80.3787 277.655 81.104C276.839 81.8747 275.864 82.3733 274.731 82.6C273.643 82.8267 272.555 82.94 271.467 82.94H268.271ZM300.447 69V65.192C301.489 65.192 302.487 65.056 303.439 64.784C304.436 64.512 305.207 63.9907 305.751 63.22C306.34 62.4493 306.748 61.6333 306.975 60.772C307.201 59.8653 307.36 58.9587 307.451 58.052C307.587 57.1453 307.677 56.2387 307.723 55.332L309.559 32.96H335.671V69H330.979V36.768H313.911L312.415 55.604C312.324 56.9187 312.188 58.2333 312.007 59.548C311.825 60.8627 311.485 62.1547 310.987 63.424C310.488 64.6933 309.717 65.8267 308.675 66.824C307.632 67.776 306.363 68.388 304.867 68.66C303.416 68.8867 301.943 69 300.447 69ZM356.286 69.544C354.654 69.544 353.045 69.3627 351.458 69C349.917 68.592 348.534 67.8893 347.31 66.892C346.132 65.8947 345.248 64.716 344.658 63.356C344.114 61.996 343.842 60.5907 343.842 59.14C343.842 57.6893 344.137 56.3067 344.726 54.992C345.361 53.632 346.313 52.4987 347.582 51.592C348.852 50.64 350.212 49.9147 351.662 49.416C353.158 48.872 354.677 48.5093 356.218 48.328C357.805 48.1013 359.414 47.988 361.046 47.988H369.954V44.452C369.954 43.2733 369.682 42.14 369.138 41.052C368.594 39.9187 367.801 38.9893 366.758 38.264C365.716 37.4933 364.537 36.972 363.222 36.7C361.953 36.3827 360.661 36.224 359.346 36.224C357.805 36.224 356.264 36.428 354.722 36.836C353.181 37.244 351.866 38.0147 350.778 39.148C349.69 40.236 349.101 41.4827 349.01 42.888H344.318C344.454 40.8027 345.27 38.876 346.766 37.108C348.262 35.34 350.144 34.116 352.41 33.436C354.677 32.756 356.989 32.416 359.346 32.416C360.888 32.416 362.406 32.552 363.902 32.824C365.398 33.096 366.826 33.572 368.186 34.252C369.546 34.8867 370.725 35.748 371.722 36.836C372.72 37.8787 373.445 39.08 373.898 40.44C374.352 41.7547 374.578 43.092 374.578 44.452V69H369.954V62.744C369.274 64.0587 368.3 65.2147 367.03 66.212C365.58 67.3907 363.902 68.252 361.998 68.796C360.14 69.2947 358.236 69.544 356.286 69.544ZM357.85 65.736C359.301 65.736 360.729 65.5773 362.134 65.26C363.585 64.9427 364.922 64.3987 366.146 63.628C367.416 62.812 368.368 61.792 369.002 60.568C369.637 59.344 369.954 58.0747 369.954 56.76V51.796H361.046C359.641 51.796 358.258 51.9093 356.898 52.136C355.538 52.3173 354.201 52.68 352.886 53.224C351.617 53.768 350.552 54.584 349.69 55.672C348.874 56.7147 348.466 57.848 348.466 59.072C348.466 60.1147 348.738 61.0893 349.282 61.996C349.826 62.9027 350.552 63.6507 351.458 64.24C352.41 64.8293 353.43 65.2373 354.518 65.464C355.652 65.6453 356.762 65.736 357.85 65.736ZM396.35 69V36.768H382.682V32.96H414.642V36.768H400.974V69H396.35ZM437.842 69.544C435.711 69.544 433.648 69.2493 431.654 68.66C429.659 68.0707 427.891 67.096 426.35 65.736C424.854 64.376 423.766 62.7893 423.086 60.976C422.451 59.1627 422.134 57.304 422.134 55.4V46.56C422.134 44.656 422.451 42.7973 423.086 40.984C423.766 39.1707 424.854 37.584 426.35 36.224C427.891 34.864 429.659 33.8893 431.654 33.3C433.648 32.7107 435.711 32.416 437.842 32.416C439.972 32.416 442.035 32.7107 444.03 33.3C446.024 33.8893 447.77 34.864 449.266 36.224C450.807 37.584 451.895 39.1707 452.53 40.984C453.21 42.7973 453.55 44.656 453.55 46.56V55.4C453.55 57.304 453.21 59.1627 452.53 60.976C451.895 62.7893 450.807 64.376 449.266 65.736C447.77 67.096 446.024 68.0707 444.03 68.66C442.035 69.2493 439.972 69.544 437.842 69.544ZM437.842 65.736C439.338 65.736 440.811 65.5093 442.262 65.056C443.712 64.6027 444.936 63.8773 445.934 62.88C446.976 61.8373 447.724 60.6813 448.178 59.412C448.631 58.0973 448.858 56.76 448.858 55.4V46.56C448.858 45.2 448.631 43.8853 448.178 42.616C447.724 41.3013 446.976 40.1453 445.934 39.148C444.936 38.1053 443.712 37.3573 442.262 36.904C440.811 36.4507 439.338 36.224 437.842 36.224C436.346 36.224 434.872 36.4507 433.422 36.904C431.971 37.3573 430.724 38.1053 429.682 39.148C428.684 40.1453 427.959 41.3013 427.506 42.616C427.052 43.8853 426.826 45.2 426.826 46.56V55.4C426.826 56.76 427.052 58.0973 427.506 59.412C427.959 60.6813 428.684 61.8373 429.682 62.88C430.724 63.8773 431.971 64.6027 433.422 65.056C434.872 65.5093 436.346 65.736 437.842 65.736ZM461.858 69V32.96H479.13C480.535 32.96 481.918 33.164 483.278 33.572C484.683 33.9347 485.907 34.5693 486.95 35.476C487.992 36.3827 488.74 37.4707 489.194 38.74C489.692 39.964 489.942 41.2107 489.942 42.48C489.942 43.704 489.692 44.9053 489.194 46.084C488.695 47.2627 487.879 48.26 486.746 49.076C486.247 49.4387 485.726 49.756 485.182 50.028C486.406 50.3453 487.562 50.776 488.65 51.32C490.1 52.0907 491.234 53.156 492.05 54.516C492.866 55.876 493.274 57.2813 493.274 58.732C493.274 60.2733 492.888 61.7693 492.118 63.22C491.392 64.6253 490.304 65.7813 488.854 66.688C487.403 67.5493 485.839 68.1613 484.162 68.524C482.53 68.8413 480.852 69 479.13 69H461.858ZM466.55 65.192H479.13C480.263 65.192 481.374 65.1013 482.462 64.92C483.595 64.6933 484.638 64.308 485.59 63.764C486.542 63.22 487.267 62.4947 487.766 61.588C488.31 60.6813 488.582 59.7293 488.582 58.732C488.582 57.6893 488.31 56.7147 487.766 55.808C487.267 54.9013 486.542 54.176 485.59 53.632C484.638 53.088 483.595 52.7027 482.462 52.476C481.374 52.2493 480.263 52.136 479.13 52.136H466.55V65.192ZM479.13 48.328C480.263 48.328 481.328 48.1013 482.326 47.648C483.368 47.1493 484.116 46.424 484.57 45.472C485.023 44.52 485.25 43.5453 485.25 42.548C485.25 41.5507 485 40.576 484.502 39.624C484.048 38.672 483.323 37.9693 482.326 37.516C481.328 37.0173 480.263 36.768 479.13 36.768H466.55V48.328H479.13Z" fill="black"/>
<path d="M536.868 18.9H542.58L519.732 80.1H514.02L536.868 18.9Z" fill="#FF5C00"/>
<path d="M564.32 33.9H569.312L579.488 53.964H579.584L589.76 33.9H594.56V67.5H591.2V37.98H591.104L581.12 57.66H577.76L567.776 37.98H567.68V67.5H564.32V33.9ZM611.819 67.836C610.283 67.836 608.875 67.58 607.595 67.068C606.315 66.556 605.227 65.82 604.331 64.86C603.435 63.868 602.731 62.668 602.219 61.26C601.739 59.82 601.499 58.172 601.499 56.316V54.684C601.499 52.86 601.739 51.228 602.219 49.788C602.731 48.348 603.435 47.148 604.331 46.188C605.259 45.196 606.347 44.444 607.595 43.932C608.875 43.42 610.283 43.164 611.819 43.164C613.355 43.164 614.763 43.42 616.043 43.932C617.323 44.444 618.411 45.196 619.307 46.188C620.203 47.18 620.891 48.412 621.371 49.884C621.883 51.324 622.139 53.004 622.139 54.924V56.364H604.763C604.763 59.148 605.371 61.276 606.587 62.748C607.803 64.22 609.547 64.956 611.819 64.956C615.243 64.956 617.515 63.564 618.635 60.78H621.899C621.323 63.084 620.171 64.844 618.443 66.06C616.747 67.244 614.539 67.836 611.819 67.836ZM611.819 46.044C609.771 46.044 608.123 46.7 606.875 48.012C605.627 49.292 604.923 51.18 604.763 53.676H618.875C618.715 51.084 617.995 49.164 616.715 47.916C615.467 46.668 613.835 46.044 611.819 46.044ZM628.861 43.5H632.029V53.82H645.373V43.5H648.541V67.5H645.373V56.7H632.029V67.5H628.861V43.5ZM661.601 46.38H653.585V43.5H672.785V46.38H664.769V67.5H661.601V46.38ZM686.028 67.836C682.796 67.836 680.22 66.844 678.3 64.86C676.412 62.876 675.468 60.028 675.468 56.316V54.684C675.468 52.86 675.708 51.228 676.188 49.788C676.7 48.348 677.42 47.148 678.348 46.188C679.276 45.196 680.38 44.444 681.66 43.932C682.972 43.42 684.428 43.164 686.028 43.164C689.26 43.164 691.82 44.156 693.708 46.14C695.628 48.124 696.588 50.972 696.588 54.684V56.316C696.588 58.14 696.332 59.772 695.82 61.212C695.34 62.652 694.636 63.868 693.708 64.86C692.78 65.82 691.66 66.556 690.348 67.068C689.068 67.58 687.628 67.836 686.028 67.836ZM686.028 64.956C688.236 64.956 689.996 64.236 691.308 62.796C692.652 61.356 693.324 59.196 693.324 56.316V54.684C693.324 51.836 692.652 49.692 691.308 48.252C689.964 46.78 688.204 46.044 686.028 46.044C683.82 46.044 682.044 46.764 680.7 48.204C679.388 49.644 678.732 51.804 678.732 54.684V56.316C678.732 59.164 679.404 61.324 680.748 62.796C682.092 64.236 683.852 64.956 686.028 64.956ZM703.299 43.5H705.795L706.179 47.1H706.275C707.331 45.724 708.499 44.732 709.779 44.124C711.059 43.484 712.563 43.164 714.291 43.164C715.699 43.164 716.995 43.42 718.179 43.932C719.363 44.412 720.371 45.148 721.203 46.14C722.067 47.1 722.739 48.3 723.219 49.74C723.699 51.18 723.939 52.828 723.939 54.684V56.316C723.939 58.172 723.699 59.82 723.219 61.26C722.739 62.668 722.067 63.868 721.203 64.86C720.339 65.82 719.315 66.556 718.131 67.068C716.947 67.58 715.667 67.836 714.291 67.836C710.835 67.836 708.259 66.604 706.563 64.14H706.467V77.1H703.299V43.5ZM713.571 64.956C715.683 64.956 717.395 64.252 718.707 62.844C720.019 61.404 720.675 59.228 720.675 56.316V54.684C720.675 51.836 720.003 49.692 718.659 48.252C717.347 46.78 715.651 46.044 713.571 46.044C711.459 46.044 709.747 46.764 708.435 48.204C707.123 49.612 706.467 51.772 706.467 54.684V56.316C706.467 59.164 707.123 61.324 708.435 62.796C709.779 64.236 711.491 64.956 713.571 64.956ZM739.314 67.836C737.81 67.836 736.434 67.596 735.186 67.116C733.938 66.604 732.866 65.852 731.97 64.86C731.106 63.868 730.434 62.636 729.954 61.164C729.474 59.692 729.234 57.996 729.234 56.076V54.444C729.234 52.652 729.474 51.068 729.954 49.692C730.466 48.284 731.154 47.1 732.018 46.14C732.914 45.18 733.97 44.444 735.186 43.932C736.434 43.42 737.81 43.164 739.314 43.164C740.722 43.164 741.986 43.356 743.106 43.74C744.226 44.092 745.186 44.604 745.986 45.276C746.786 45.916 747.426 46.668 747.906 47.532C748.386 48.364 748.722 49.26 748.914 50.22H745.65C745.298 49.036 744.642 48.044 743.682 47.244C742.722 46.444 741.346 46.044 739.554 46.044C737.506 46.044 735.81 46.764 734.466 48.204C733.154 49.644 732.498 51.724 732.498 54.444V56.076C732.498 59.02 733.17 61.244 734.514 62.748C735.858 64.22 737.538 64.956 739.554 64.956C741.346 64.956 742.722 64.54 743.682 63.708C744.642 62.876 745.298 61.74 745.65 60.3H748.914C748.722 61.388 748.386 62.396 747.906 63.324C747.426 64.22 746.786 65.004 745.986 65.676C745.186 66.348 744.226 66.876 743.106 67.26C741.986 67.644 740.722 67.836 739.314 67.836ZM759.804 46.38H751.788V43.5H770.988V46.38H762.972V67.5H759.804V46.38ZM776.049 43.5H785.169C787.985 43.5 790.049 44.092 791.361 45.276C792.673 46.46 793.329 48.06 793.329 50.076C793.329 51.132 793.057 52.092 792.513 52.956C792.001 53.82 791.265 54.492 790.305 54.972V55.068C791.617 55.58 792.609 56.316 793.281 57.276C793.953 58.236 794.289 59.356 794.289 60.636C794.289 62.78 793.633 64.46 792.321 65.676C791.009 66.892 788.945 67.5 786.129 67.5H776.049V43.5ZM790.065 50.124C790.065 48.94 789.681 48.028 788.913 47.388C788.145 46.716 786.817 46.38 784.929 46.38H779.217V53.916H784.929C786.817 53.916 788.145 53.596 788.913 52.956C789.681 52.284 790.065 51.34 790.065 50.124ZM791.025 60.588C791.025 59.276 790.641 58.284 789.873 57.612C789.105 56.94 787.777 56.604 785.889 56.604H779.217V64.62H785.889C787.777 64.62 789.105 64.284 789.873 63.612C790.641 62.94 791.025 61.932 791.025 60.588ZM810.106 67.836C806.874 67.836 804.298 66.844 802.378 64.86C800.49 62.876 799.546 60.028 799.546 56.316V54.684C799.546 52.86 799.786 51.228 800.266 49.788C800.778 48.348 801.498 47.148 802.426 46.188C803.354 45.196 804.458 44.444 805.738 43.932C807.05 43.42 808.506 43.164 810.106 43.164C813.338 43.164 815.898 44.156 817.786 46.14C819.706 48.124 820.666 50.972 820.666 54.684V56.316C820.666 58.14 820.41 59.772 819.898 61.212C819.418 62.652 818.714 63.868 817.786 64.86C816.858 65.82 815.738 66.556 814.426 67.068C813.146 67.58 811.706 67.836 810.106 67.836ZM810.106 64.956C812.314 64.956 814.074 64.236 815.386 62.796C816.73 61.356 817.402 59.196 817.402 56.316V54.684C817.402 51.836 816.73 49.692 815.386 48.252C814.042 46.78 812.282 46.044 810.106 46.044C807.898 46.044 806.122 46.764 804.778 48.204C803.466 49.644 802.81 51.804 802.81 54.684V56.316C802.81 59.164 803.482 61.324 804.826 62.796C806.17 64.236 807.93 64.956 810.106 64.956Z" fill="#475569"/>
</svg>
