<svg width="21" height="14" viewBox="0 0 21 14" fill="none" xmlns="http://www.w3.org/2000/svg">
<path fill-rule="evenodd" clip-rule="evenodd" d="M19.5962 8.0505C20.1809 7.4649 20.1809 6.5202 19.5962 5.9346C17.7848 4.1203 14.2515 0.5815 13.9625 0.2925C13.5725 -0.0975 12.9325 -0.0975 12.5425 0.2925C12.1525 0.6825 12.1525 1.3125 12.5425 1.7025L15.2592 4.4192C15.7936 4.9536 16.386 5.4248 17.0267 5.8256L17.3694 6.0399L17.1613 6.2465C16.4276 6.0779 15.6763 5.9925 14.9219 5.9925H1C0.4477 5.9925 0 6.4402 0 6.9925C0 7.5448 0.4477 7.9925 1 7.9925H14.9219C15.6763 7.9925 16.4276 7.9071 17.1613 7.7385L17.3694 7.9451L17.0267 8.1595C16.386 8.5602 15.7936 9.0314 15.2592 9.5658L12.5425 12.2825C12.1525 12.6725 12.1525 13.3025 12.5425 13.6925C12.9325 14.0825 13.5725 14.0825 13.9625 13.6925C14.2515 13.4036 17.7848 9.8648 19.5962 8.0505Z" fill="#0F172A"/>
</svg>
