<svg width="71" height="14" viewBox="0 0 71 14" fill="none" xmlns="http://www.w3.org/2000/svg">
<path d="M7.41667 12.75L7.34996 12.6499C6.88687 11.9553 6.65532 11.608 6.3494 11.3565C6.07857 11.1339 5.76651 10.9669 5.43107 10.8651C5.05217 10.75 4.63474 10.75 3.79988 10.75H2.88333C2.1366 10.75 1.76323 10.75 1.47801 10.6047C1.22713 10.4768 1.02316 10.2729 0.895325 10.022C0.75 9.73677 0.75 9.3634 0.75 8.61667V2.88333C0.75 2.1366 0.75 1.76323 0.895325 1.47801C1.02316 1.22713 1.22713 1.02316 1.47801 0.895325C1.76323 0.75 2.1366 0.75 2.88333 0.75H3.15C4.64347 0.75 5.39021 0.75 5.96064 1.04065C6.46241 1.29631 6.87035 1.70426 7.12602 2.20603C7.41667 2.77646 7.41667 3.52319 7.41667 5.01667M7.41667 12.75V5.01667M7.41667 12.75L7.48337 12.6499C7.94646 11.9553 8.17801 11.608 8.48393 11.3565C8.75476 11.1339 9.06682 10.9669 9.40226 10.8651C9.78117 10.75 10.1986 10.75 11.0335 10.75H11.95C12.6967 10.75 13.0701 10.75 13.3553 10.6047C13.6062 10.4768 13.8102 10.2729 13.938 10.022C14.0833 9.73677 14.0833 9.3634 14.0833 8.61667V2.88333C14.0833 2.1366 14.0833 1.76323 13.938 1.47801C13.8102 1.22713 13.6062 1.02316 13.3553 0.895325C13.0701 0.75 12.6967 0.75 11.95 0.75H11.6833C10.1899 0.75 9.44312 0.75 8.87269 1.04065C8.37093 1.29631 7.96298 1.70426 7.70732 2.20603C7.41667 2.77646 7.41667 3.52319 7.41667 5.01667M70.0833 12.75V11.4167C70.0833 10.1741 69.2335 9.13004 68.0833 8.83401M65.75 0.943839C66.7273 1.33943 67.4167 2.29754 67.4167 3.41667C67.4167 4.53579 66.7273 5.4939 65.75 5.88949M66.75 12.75C66.75 11.5075 66.75 10.8862 66.547 10.3962C66.2764 9.74277 65.7572 9.22364 65.1038 8.95299C64.6138 8.75 63.9925 8.75 62.75 8.75H60.75C59.5075 8.75 58.8862 8.75 58.3962 8.95299C57.7428 9.22364 57.2236 9.74277 56.953 10.3962C56.75 10.8862 56.75 11.5075 56.75 12.75M29.4167 5.41667V8.08333M32.4167 6.08333V7.41667M35.4167 2.75V10.75M38.4167 0.75V12.75M41.4167 5.41667V8.08333M64.4167 3.41667C64.4167 4.88943 63.2228 6.08333 61.75 6.08333C60.2772 6.08333 59.0833 4.88943 59.0833 3.41667C59.0833 1.94391 60.2772 0.75 61.75 0.75C63.2228 0.75 64.4167 1.94391 64.4167 3.41667Z" stroke="#475569" stroke-width="1.5" stroke-linecap="round" stroke-linejoin="round"/>
</svg>
