<svg width="32" height="27" viewBox="0 0 32 27" fill="none" xmlns="http://www.w3.org/2000/svg">
<path d="M1.96186 11.7586C1.96186 11.7586 16.1147 5.83156 21.0231 3.74452C22.9048 2.90977 29.2858 0.23834 29.2858 0.23834C29.2858 0.23834 32.2309 -0.930308 31.9855 1.90795C31.9036 3.07672 31.2492 7.16716 30.5947 11.5916C29.613 17.8526 28.5495 24.6979 28.5495 24.6979C28.5495 24.6979 28.3859 26.618 26.9952 26.9519C25.6045 27.2858 23.3137 25.7833 22.9048 25.4493C22.5775 25.1989 16.7691 21.4422 14.6421 19.6057C14.0694 19.1048 13.415 18.1031 14.7239 16.9344C17.669 14.1795 21.1867 10.7569 23.3137 8.5864C24.2955 7.58459 25.2771 5.24718 21.1867 8.08544C15.3784 12.176 9.65184 16.0161 9.65184 16.0161C9.65184 16.0161 8.34287 16.8508 5.88866 16.0995C3.43433 15.3483 0.571038 14.3465 0.571038 14.3465C0.571038 14.3465 -1.39224 13.0943 1.96186 11.7586Z" fill="#0F172A"/>
</svg>
