<?xml version="1.0" encoding="UTF-8" standalone="no"?>
<svg
   width="182"
   height="182"
   viewBox="0 0 182 182"
   fill="none"
   version="1.1"
   id="svg3"
   sodipodi:docname="favicon.svg"
   inkscape:version="1.4 (e7c3feb100, 2024-10-09)"
   xmlns:inkscape="http://www.inkscape.org/namespaces/inkscape"
   xmlns:sodipodi="http://sodipodi.sourceforge.net/DTD/sodipodi-0.dtd"
   xmlns="http://www.w3.org/2000/svg"
   xmlns:svg="http://www.w3.org/2000/svg">
  <defs
     id="defs3" />
  <sodipodi:namedview
     id="namedview3"
     pagecolor="#ffffff"
     bordercolor="#000000"
     borderopacity="0.25"
     inkscape:showpageshadow="2"
     inkscape:pageopacity="0.0"
     inkscape:pagecheckerboard="0"
     inkscape:deskcolor="#d1d1d1"
     inkscape:zoom="4.3956044"
     inkscape:cx="91.11375"
     inkscape:cy="109.2"
     inkscape:window-width="1920"
     inkscape:window-height="1011"
     inkscape:window-x="0"
     inkscape:window-y="0"
     inkscape:window-maximized="1"
     inkscape:current-layer="svg3" />
  <path
     d="M 4.1385,124.89116 V 45.714744 h 25.207185 c 3.662582,0 7.253402,0.538615 10.772301,1.615845 3.518899,1.077231 6.571103,2.872561 9.156456,5.386151 2.585352,2.441669 4.416643,5.278428 5.493873,8.510118 1.07723,3.159928 1.615846,6.391618 1.615846,9.695071 0,3.303453 -0.538616,6.571104 -1.615846,9.802794 -1.07723,3.159928 -2.908521,5.960726 -5.493873,8.402395 -2.585353,2.441669 -5.637557,4.201197 -9.156456,5.278427 -3.518899,1.077231 -7.109719,1.615846 -10.772301,1.615846 H 18.250214 V 124.89116 Z M 18.250214,84.602751 h 11.095471 c 1.939014,0 3.770305,-0.323169 5.493873,-0.969507 1.795331,-0.7181 3.267651,-1.759528 4.416644,-3.123967 1.148992,-1.364439 1.939014,-2.872561 2.369906,-4.524366 0.430892,-1.723569 0.646338,-3.411176 0.646338,-5.062982 0,-1.723568 -0.215446,-3.411176 -0.646338,-5.062982 -0.430892,-1.651805 -1.220914,-3.159927 -2.369906,-4.524366 -1.148993,-1.43636 -2.621313,-2.477629 -4.416644,-3.123967 -1.723568,-0.718101 -3.554859,-1.07723 -5.493873,-1.07723 H 18.250214 Z"
     fill="#000000"
     id="path1"
     style="stroke-width:1.58416" />
  <path
     d="m 104.97358,45.524645 h 9.04873 L 77.827376,142.47536 h -9.048733 z"
     fill="#ff5c00"
     id="path2"
     style="stroke-width:1.58416" />
  <path
     d="m 128.69165,69.287074 h 10.64557 l 14.21943,31.328386 h 0.15208 l 14.21944,-31.328386 h 10.18933 v 53.227836 h -7.14774 V 77.651449 h -0.15208 l -13.61112,30.035711 h -7.60397 L 135.99147,77.651449 h -0.15208 v 44.863461 h -7.14774 z"
     fill="#475569"
     id="path3"
     style="stroke-width:1.58416" />
</svg>
