<svg width="16" height="9" viewBox="0 0 16 9" fill="none" xmlns="http://www.w3.org/2000/svg">
<path d="M8.01229 2.20768L1.71929 8.50068C1.62704 8.59619 1.5167 8.67237 1.39469 8.72478C1.27269 8.77719 1.14147 8.80478 1.00869 8.80593C0.87591 8.80709 0.744231 8.78178 0.621334 8.7315C0.498438 8.68122 0.386786 8.60697 0.292893 8.51307C0.199 8.41918 0.124747 8.30753 0.0744663 8.18463C0.0241854 8.06174 -0.00111606 7.93006 3.77571e-05 7.79728C0.00119157 7.6645 0.0287779 7.53328 0.0811869 7.41128C0.133596 7.28927 0.209778 7.17893 0.305288 7.08668L6.95129 0.43968C7.09059 0.30029 7.25599 0.189715 7.43804 0.114273C7.62009 0.0388304 7.81522 0 8.01229 0C8.20935 0 8.40448 0.0388304 8.58654 0.114273C8.76859 0.189715 8.93399 0.30029 9.07329 0.43968L15.7193 7.08668C15.9014 7.27528 16.0022 7.52788 16 7.79008C15.9977 8.05228 15.8925 8.30309 15.7071 8.4885C15.5217 8.67391 15.2709 8.77907 15.0087 8.78135C14.7465 8.78363 14.4939 8.68284 14.3053 8.50068L8.01229 2.20768Z" fill="#FF5C00"/>
</svg>
