<svg width="182" height="182" viewBox="0 0 182 182" fill="none" xmlns="http://www.w3.org/2000/svg">
<rect width="182" height="182" rx="91" fill="#F5F5F7"/>
<path d="M39.216 113.5V63.52H55.128C57.44 63.52 59.7067 63.86 61.928 64.54C64.1493 65.22 66.076 66.3533 67.708 67.94C69.34 69.4813 70.496 71.272 71.176 73.312C71.856 75.3067 72.196 77.3467 72.196 79.432C72.196 81.5173 71.856 83.58 71.176 85.62C70.496 87.6147 69.34 89.3827 67.708 90.924C66.076 92.4653 64.1493 93.576 61.928 94.256C59.7067 94.936 57.44 95.276 55.128 95.276H48.124V113.5H39.216ZM48.124 88.068H55.128C56.352 88.068 57.508 87.864 58.596 87.456C59.7293 87.0027 60.6587 86.3453 61.384 85.484C62.1093 84.6227 62.608 83.6707 62.88 82.628C63.152 81.54 63.288 80.4747 63.288 79.432C63.288 78.344 63.152 77.2787 62.88 76.236C62.608 75.1933 62.1093 74.2413 61.384 73.38C60.6587 72.4733 59.7293 71.816 58.596 71.408C57.508 70.9547 56.352 70.728 55.128 70.728H48.124V88.068Z" fill="black"/>
<path d="M102.868 63.4H108.58L85.732 124.6H80.02L102.868 63.4Z" fill="#FF5C00"/>
<path d="M114.96 108.256H115.44C116.784 108.256 117.824 107.872 118.56 107.104C119.328 106.304 119.888 105.232 120.24 103.888C120.592 102.512 120.8 100.896 120.864 99.04C120.928 97.184 120.96 95.184 120.96 93.04V78.4H143.04V112H138.528V82.528H125.472V93.04C125.472 95.504 125.408 97.904 125.28 100.24C125.184 102.544 124.816 104.608 124.176 106.432C123.536 108.224 122.544 109.664 121.2 110.752C119.856 111.84 117.936 112.384 115.44 112.384H114.96V108.256Z" fill="#475569"/>
</svg>
