<svg width="182" height="182" viewBox="0 0 182 182" fill="none" xmlns="http://www.w3.org/2000/svg">
<rect width="182" height="182" rx="91" fill="#F5F5F7"/>
<path d="M36.216 113.5V63.52H52.128C54.44 63.52 56.7067 63.86 58.928 64.54C61.1493 65.22 63.076 66.3533 64.708 67.94C66.34 69.4813 67.496 71.272 68.176 73.312C68.856 75.3067 69.196 77.3467 69.196 79.432C69.196 81.5173 68.856 83.58 68.176 85.62C67.496 87.6147 66.34 89.3827 64.708 90.924C63.076 92.4653 61.1493 93.576 58.928 94.256C56.7067 94.936 54.44 95.276 52.128 95.276H45.124V113.5H36.216ZM45.124 88.068H52.128C53.352 88.068 54.508 87.864 55.596 87.456C56.7293 87.0027 57.6587 86.3453 58.384 85.484C59.1093 84.6227 59.608 83.6707 59.88 82.628C60.152 81.54 60.288 80.4747 60.288 79.432C60.288 78.344 60.152 77.2787 59.88 76.236C59.608 75.1933 59.1093 74.2413 58.384 73.38C57.6587 72.4733 56.7293 71.816 55.596 71.408C54.508 70.9547 53.352 70.728 52.128 70.728H45.124V88.068Z" fill="black"/>
<path d="M99.868 63.4H105.58L82.732 124.6H77.02L99.868 63.4Z" fill="#FF5C00"/>
<path d="M114.84 78.4H121.56L130.536 98.176H130.632L139.608 78.4H146.04V112H141.528V83.68H141.432L132.84 102.64H128.04L119.448 83.68H119.352V112H114.84V78.4Z" fill="#475569"/>
</svg>
