<svg width="38" height="35" viewBox="0 0 38 35" fill="none" xmlns="http://www.w3.org/2000/svg">
<path d="M5.66112 0.850189C5.66112 2.21162 6.45625 6.70651 6.80285 7.26837C7.12906 7.80862 7.88342 8.19761 9.33098 8.6082C9.84068 8.75947 10.4523 8.95396 10.697 9.06201C10.962 9.17006 11.3698 9.17006 11.6145 9.06201C11.8795 8.97557 12.4096 8.93235 12.8377 8.97557L13.5717 9.08362L12.43 9.73192C11.7776 10.0777 11.0436 10.4234 10.7581 10.4883C10.4931 10.5315 9.84068 10.8124 9.33098 11.0717C8.82128 11.3527 8.14847 11.6984 7.80187 11.8497C7.04751 12.1739 6.0281 12.6709 3.98929 13.6649C3.13299 14.0971 2.31746 14.4429 2.17474 14.4429C2.05242 14.4429 1.99125 14.6158 2.05242 14.8103C2.11358 15.0264 2.54173 16.5607 3.01066 18.2247C3.49997 19.8886 3.94851 21.3365 4.03007 21.4229C4.11162 21.531 4.49899 21.4446 4.86598 21.2285C5.47762 20.9043 6.06888 20.7746 8.92322 20.4073C10.4727 20.2128 12.9193 19.8454 13.3678 19.7158C14.163 19.5429 13.796 20.0831 12.6746 20.7314C12.1242 21.0556 11.5125 21.3365 11.329 21.3365C11.1251 21.3581 10.3096 21.6823 9.49408 22.0929C7.84265 22.914 3.84657 24.5132 2.90872 24.7293C2.58251 24.8157 2.21552 24.9454 2.09319 25.0318C1.99125 25.1183 1.50194 25.2695 1.01262 25.356C0.523306 25.4424 0.0747671 25.6369 0.0136027 25.8098C-0.088338 26.1339 0.400977 29.4835 0.869904 31.4068C1.15534 32.6386 1.35922 32.7466 3.05143 32.4225C3.68347 32.2928 4.27472 32.2712 4.4786 32.4009C4.68249 32.5305 4.84559 32.5089 4.88637 32.3576C4.92714 32.2064 6.17082 32.0983 8.41351 32.0335C10.33 31.9903 12.2261 31.9254 12.6339 31.8822C13.062 31.8606 13.429 31.9254 13.4698 32.0335C13.5513 32.2928 15.8552 32.2496 16.1202 31.9687C16.2426 31.839 16.4668 31.8606 16.7523 32.0767C17.0989 32.2928 17.3639 32.3144 17.8736 32.1631C18.261 32.0551 18.6484 32.0119 18.7503 32.0767C18.8522 32.1631 19.1377 32.0119 19.3823 31.7958C19.9736 31.2339 20.5445 31.0178 20.5445 31.3636C20.5445 31.7958 21.258 32.336 21.5842 32.1631C22.2367 31.7742 22.9706 31.839 23.4396 32.336L23.9289 32.8114L24.3978 32.3576C24.7444 32.0119 24.9075 31.9687 25.1318 32.1631C25.2949 32.2928 25.5192 32.3576 25.6415 32.2712C25.7434 32.2064 25.8454 32.2496 25.8454 32.3576C25.8454 32.6602 27.6191 32.4873 27.9861 32.1631C28.19 31.9903 28.2919 31.9903 28.3939 32.1631C28.4754 32.2928 28.6589 32.3576 28.822 32.2928C28.9648 32.228 29.1482 32.2712 29.2298 32.4009C29.291 32.5089 29.5152 32.5521 29.7191 32.4873C29.9434 32.4225 30.1269 32.4873 30.2084 32.7034C30.29 32.9195 30.5958 33.0275 31.1871 33.0275C31.6764 33.0275 32.2676 33.1572 32.4919 33.3301C32.7162 33.503 33.022 33.5678 33.1647 33.4814C33.4909 33.2653 35.2443 33.4381 35.5297 33.6975C35.6317 33.8055 35.8763 33.8919 36.0598 33.8919C36.2637 33.8919 36.7122 34.1729 37.0792 34.5402C37.5685 34.9941 37.7928 35.1021 37.9151 34.9076C38.0783 34.6483 37.9967 31.8606 37.752 29.4403L37.6093 28.1005L36.7734 27.9924C36.3249 27.9276 34.8365 27.6683 33.4909 27.4305C30.7589 26.9551 27.2521 26.6094 22.9095 26.4149C21.3396 26.35 19.3008 26.1988 18.4037 26.0907C17.5066 25.9827 16.3445 25.8962 15.8144 25.8962C15.2639 25.8962 14.8358 25.8314 14.8358 25.7233C14.8358 25.5072 17.16 24.3835 17.629 24.3835C17.8328 24.3835 18.1794 24.2323 18.3833 24.0594C18.6076 23.8865 18.9746 23.7352 19.1988 23.7352C19.6882 23.7136 21.4415 23.0869 22.1755 22.6547C22.4609 22.5035 23.4396 22.309 24.3774 22.2657C25.2949 22.2009 26.09 22.0929 26.1512 22.0064C26.2124 21.92 26.1716 21.3149 26.0696 20.6882C25.9473 20.0399 25.7638 18.5272 25.6211 17.2954L25.3561 15.0912L24.6221 14.8751C24.2347 14.7671 23.358 14.6158 22.6852 14.551C22.0124 14.4861 21.1357 14.3781 20.7483 14.3349C20.361 14.2916 19.5047 14.2484 18.8726 14.2484C17.6901 14.2268 17.262 13.9027 18.159 13.7082C18.4037 13.6433 19.7697 13.2976 21.1765 12.9302C22.6037 12.5844 23.9289 12.2819 24.1532 12.2819C24.357 12.2819 24.6425 12.1739 24.7444 12.0658C24.8667 11.9361 25.6415 11.8065 26.4774 11.7633C28.2716 11.6768 28.2308 11.72 27.8842 8.86752C27.7619 7.83023 27.5987 6.38236 27.5376 5.62601L27.4153 4.26458L26.6813 4.39424C25.2337 4.63195 22.8483 4.76161 20.5445 4.69678C19.26 4.67517 17.9755 4.65356 17.6901 4.67517C17.4047 4.67517 15.8552 4.58873 14.2241 4.45907C11.1047 4.24297 8.73972 3.70271 7.39411 2.92476C6.66013 2.49255 6.53781 2.29806 6.29315 1.19595C5.96694 -0.230312 5.66112 -0.424801 5.66112 0.850189Z" fill="#0F172A"/>
</svg>
