<svg width="20" height="20" viewBox="0 0 20 20" fill="none" xmlns="http://www.w3.org/2000/svg">
<g clip-path="url(#clip0_2498_4152)">
<path d="M12.9426 12.9416C12.6985 13.1857 12.3028 13.1857 12.0587 12.9416L10.0006 10.8836L7.94259 12.9416C7.69851 13.1857 7.30278 13.1857 7.0587 12.9416C6.81462 12.6975 6.81462 12.3018 7.0587 12.0577L9.11676 9.99967L7.05871 7.94162C6.81463 7.69755 6.81463 7.30182 7.05871 7.05774C7.30279 6.81366 7.69852 6.81366 7.94259 7.05774L10.0006 9.11579L12.0587 7.05773C12.3028 6.81366 12.6985 6.81365 12.9426 7.05773C13.1867 7.30181 13.1867 7.69754 12.9426 7.94162L10.8845 9.99967L12.9426 12.0577C13.1867 12.3018 13.1867 12.6975 12.9426 12.9416Z" fill="#475569"/>
<path fill-rule="evenodd" clip-rule="evenodd" d="M0.208984 9.99967C0.208984 4.59189 4.59286 0.208008 10.0007 0.208008C15.4084 0.208008 19.7923 4.59189 19.7923 9.99967C19.7923 15.4075 15.4084 19.7913 10.0007 19.7913C4.59286 19.7913 0.208984 15.4075 0.208984 9.99967ZM10.0007 1.45801C5.28322 1.45801 1.45898 5.28224 1.45898 9.99967C1.45898 14.7171 5.28322 18.5413 10.0007 18.5413C14.7181 18.5413 18.5423 14.7171 18.5423 9.99967C18.5423 5.28224 14.7181 1.45801 10.0007 1.45801Z" fill="#475569"/>
</g>
<defs>
<clipPath id="clip0_2498_4152">
<rect width="20" height="20" fill="white"/>
</clipPath>
</defs>
</svg>
